<?xml version="1.0" encoding="utf-8"?>
<!-- Generator: Adobe Illustrator 21.0.0, SVG Export Plug-In . SVG Version: 6.00 Build 0)  -->
<svg version="1.1" id="bahnanlage" xmlns="http://www.w3.org/2000/svg" xmlns:xlink="http://www.w3.org/1999/xlink" x="0px" y="0px"
	 viewBox="0 0 497.58 189.45" style="enable-background:new 0 0 497.58 189.45;" xml:space="preserve">
<style type="text/css">
	.st0{fill:none;stroke:#CDCCCC;stroke-width:9;stroke-miterlimit:10;}
	.st1{fill:none;stroke:#010202;stroke-width:9;stroke-miterlimit:10;}
</style>
<g id="innen">
	<path id="grau" class="st0" d="M464.75,60.38c-0.168-0.123-0.342-0.237-0.511-0.359C447.093,25.854,422.702,4.5,395.64,4.5h-293.7
		c-27.073,0-51.444,21.345-68.599,55.502c-0.169,0.121-0.343,0.235-0.511,0.358C15.66,72.89,4.5,93.16,4.5,116.05
		c0,38.05,30.84,68.9,68.9,68.9h350.78c38.05,0,68.9-30.85,68.9-68.9C493.08,93.17,481.92,72.89,464.75,60.38z"/>
	<g id="schwarz">
		<path class="st1" d="M493.08,116.05c0,38.05-30.85,68.9-68.9,68.9H73.4c-38.06,0-68.9-30.85-68.9-68.9
			c0-22.89,11.16-43.16,28.33-55.69c11.38-8.3,25.4-13.2,40.57-13.2h350.78c15.16,0,29.19,4.9,40.57,13.22
			C481.92,72.89,493.08,93.17,493.08,116.05z"/>
	</g>
</g>
<g id="aussen">
	<path id="schwarz_1_" class="st1" d="M464.75,60.38c-0.168-0.123-0.342-0.237-0.511-0.359C447.093,25.854,422.702,4.5,395.64,4.5
		h-293.7c-27.073,0-51.444,21.345-68.599,55.502c-0.169,0.121-0.343,0.235-0.511,0.358C15.66,72.89,4.5,93.16,4.5,116.05
		c0,38.05,30.84,68.9,68.9,68.9h350.78c38.05,0,68.9-30.85,68.9-68.9C493.08,93.17,481.92,72.89,464.75,60.38z"/>
	<path id="grau_1_" class="st0" d="M493.08,116.05c0,38.05-30.85,68.9-68.9,68.9H73.4c-38.06,0-68.9-30.85-68.9-68.9
		c0-22.89,11.16-43.16,28.33-55.69c11.38-8.3,25.4-13.2,40.57-13.2h350.78c15.16,0,29.19,4.9,40.57,13.22
		C481.92,72.89,493.08,93.17,493.08,116.05z"/>
</g>

    
    
</svg>