<?xml version="1.0" encoding="utf-8"?>
<!-- Generator: Adobe Illustrator 21.0.0, SVG Export Plug-In . SVG Version: 6.00 Build 0)  -->
<svg version="1.1" id="bahnanlageInnen" xmlns="http://www.w3.org/2000/svg" xmlns:xlink="http://www.w3.org/1999/xlink" x="0px"
	 y="0px" viewBox="0 0 497.6 190.4" style="enable-background:new 0 0 497.6 190.4;" xml:space="preserve">
<style type="text/css">
	.st0{fill:none;stroke:#CDCCCC;stroke-width:9;stroke-miterlimit:10;}
	.st1{fill:none;stroke:#000000;stroke-width:9;stroke-miterlimit:10;}
</style>
<g>
	<path class="st0" d="M464.8,61.4c-11.4-8.3-25.4-13.2-40.6-13.2H73.4c-15.2,0-29.2,4.9-40.6,13.2C50,26.6,74.6,4.8,101.9,4.8h293.7
		C423,4.8,447.6,26.6,464.8,61.4z"/>
	<path class="st1" d="M493.1,117c0,38-30.9,68.9-68.9,68.9H73.4C35.3,185.9,4.5,155,4.5,117c0-22.9,11.2-43.2,28.3-55.7
		C44.2,53,58.2,48.1,73.4,48.1h350.8c15.2,0,29.2,4.9,40.6,13.2C481.9,73.9,493.1,94.2,493.1,117z"/>
</g>
</svg>
